{
	"asset":{
		"generator":"Khronos glTF Blender I/O v4.0.44",
		"version":"2.0"
	},
	"extensionsUsed":[
		"KHR_materials_specular",
		"KHR_materials_ior"
	],
	"scene":0,
	"scenes":[
		{
			"name":"Scene",
			"nodes":[
				0
			]
		}
	],
	"nodes":[
		{
			"mesh":0,
			"name":"Sphere",
			"translation":[
				-0.4047014117240906,
				0.5415058732032776,
				-0.6340866088867188
			]
		}
	],
	"materials":[
		{
			"doubleSided":true,
			"extensions":{
				"KHR_materials_specular":{
					"specularFactor":0
				},
				"KHR_materials_ior":{
					"ior":1.4500000476837158
				}
			},
			"name":"Material.001",
			"pbrMetallicRoughness":{
				"baseColorFactor":[
					0.02924410253763199,
					0.02924410253763199,
					0.02924410253763199,
					0
				],
				"metallicFactor":0,
				"roughnessFactor":0.690034806728363
			}
		},
		{
			"doubleSided":true,
			"extensions":{
				"KHR_materials_specular":{
					"specularFactor":0
				},
				"KHR_materials_ior":{
					"ior":1.4500000476837158
				}
			},
			"name":"Material.002",
			"pbrMetallicRoughness":{
				"baseColorFactor":[
					0.8000000715255737,
					0.015555662102997303,
					0,
					0
				],
				"metallicFactor":0,
				"roughnessFactor":0.690034806728363
			}
		},
		{
			"doubleSided":true,
			"extensions":{
				"KHR_materials_specular":{
					"specularFactor":0
				},
				"KHR_materials_ior":{
					"ior":1.4500000476837158
				}
			},
			"name":"Material.003",
			"pbrMetallicRoughness":{
				"baseColorFactor":[
					0.12621769309043884,
					0.12621769309043884,
					0.12621769309043884,
					0
				],
				"metallicFactor":0,
				"roughnessFactor":0.690034806728363
			}
		}
	],
	"meshes":[
		{
			"name":"Sphere.002",
			"primitives":[
				{
					"attributes":{
						"POSITION":0,
						"NORMAL":1
					},
					"indices":2,
					"material":0
				},
				{
					"attributes":{
						"POSITION":3,
						"NORMAL":4
					},
					"indices":5,
					"material":1
				},
				{
					"attributes":{
						"POSITION":6,
						"NORMAL":7
					},
					"indices":8,
					"material":2
				}
			]
		}
	],
	"accessors":[
		{
			"bufferView":0,
			"componentType":5126,
			"count":640,
			"max":[
				0.9372647404670715,
				1.6155211925506592,
				1.001490831375122
			],
			"min":[
				-0.9999996423721313,
				-1,
				-1
			],
			"type":"VEC3"
		},
		{
			"bufferView":1,
			"componentType":5126,
			"count":640,
			"type":"VEC3"
		},
		{
			"bufferView":2,
			"componentType":5123,
			"count":912,
			"type":"SCALAR"
		},
		{
			"bufferView":3,
			"componentType":5126,
			"count":480,
			"max":[
				0.08311355113983154,
				1.6918814182281494,
				0.08311331272125244
			],
			"min":[
				-0.08311355113983154,
				1.5256543159484863,
				-0.08311378955841064
			],
			"type":"VEC3"
		},
		{
			"bufferView":4,
			"componentType":5126,
			"count":480,
			"type":"VEC3"
		},
		{
			"bufferView":5,
			"componentType":5123,
			"count":672,
			"type":"SCALAR"
		},
		{
			"bufferView":6,
			"componentType":5126,
			"count":318,
			"max":[
				1.6771516799926758,
				0.7554486393928528,
				1.7073018550872803
			],
			"min":[
				-1.514370322227478,
				0.1360481083393097,
				-1.5280250310897827
			],
			"type":"VEC3"
		},
		{
			"bufferView":7,
			"componentType":5126,
			"count":318,
			"type":"VEC3"
		},
		{
			"bufferView":8,
			"componentType":5123,
			"count":480,
			"type":"SCALAR"
		}
	],
	"bufferViews":[
		{
			"buffer":0,
			"byteLength":7680,
			"byteOffset":0,
			"target":34962
		},
		{
			"buffer":0,
			"byteLength":7680,
			"byteOffset":7680,
			"target":34962
		},
		{
			"buffer":0,
			"byteLength":1824,
			"byteOffset":15360,
			"target":34963
		},
		{
			"buffer":0,
			"byteLength":5760,
			"byteOffset":17184,
			"target":34962
		},
		{
			"buffer":0,
			"byteLength":5760,
			"byteOffset":22944,
			"target":34962
		},
		{
			"buffer":0,
			"byteLength":1344,
			"byteOffset":28704,
			"target":34963
		},
		{
			"buffer":0,
			"byteLength":3816,
			"byteOffset":30048,
			"target":34962
		},
		{
			"buffer":0,
			"byteLength":3816,
			"byteOffset":33864,
			"target":34962
		},
		{
			"buffer":0,
			"byteLength":960,
			"byteOffset":37680,
			"target":34963
		}
	],
	"buffers":[
		{
			"byteLength":38640,
			"uri":"bomb.bin"
		}
	]
}
