{
	"asset":{
		"generator":"Khronos glTF Blender I/O v4.0.44",
		"version":"2.0"
	},
	"extensionsUsed":[
		"KHR_materials_specular",
		"KHR_materials_ior"
	],
	"scene":0,
	"scenes":[
		{
			"name":"Scene",
			"nodes":[
				0,
				1,
				2
			]
		}
	],
	"nodes":[
		{
			"mesh":0,
			"name":"Cube.002",
			"scale":[
				0.327701210975647,
				0.1120811328291893,
				2.249145984649658
			],
			"translation":[
				-0.17423169314861298,
				1.2825431823730469,
				-0.22650694847106934
			]
		},
		{
			"mesh":1,
			"name":"Cube.001",
			"rotation":[
				0,
				0.7071066498756409,
				0,
				0.70710688829422
			],
			"scale":[
				1.0608612298965454,
				0.9812878966331482,
				1.1155850887298584
			],
			"translation":[
				-0.13794389367103577,
				0,
				-0.1390063464641571
			]
		},
		{
			"mesh":2,
			"name":"Cube",
			"rotation":[
				0,
				0.7071066498756409,
				0,
				0.70710688829422
			],
			"scale":[
				1.0608612298965454,
				0.9812878966331482,
				1.1155850887298584
			],
			"translation":[
				-0.13794389367103577,
				0,
				-0.1390063464641571
			]
		}
	],
	"materials":[
		{
			"doubleSided":true,
			"extensions":{
				"KHR_materials_specular":{
					"specularFactor":0
				},
				"KHR_materials_ior":{
					"ior":1.4500000476837158
				}
			},
			"name":"Material.001",
			"pbrMetallicRoughness":{
				"baseColorFactor":[
					0.5894165635108948,
					0.5894165635108948,
					0.5894165635108948,
					0
				],
				"metallicFactor":0,
				"roughnessFactor":0.690034806728363
			}
		},
		{
			"doubleSided":true,
			"extensions":{
				"KHR_materials_specular":{
					"specularFactor":0
				},
				"KHR_materials_ior":{
					"ior":1.4500000476837158
				}
			},
			"name":"Material.002",
			"pbrMetallicRoughness":{
				"baseColorFactor":[
					0.5629623532295227,
					0.25639450550079346,
					0,
					0
				],
				"metallicFactor":0,
				"roughnessFactor":0.690034806728363
			}
		},
		{
			"doubleSided":true,
			"extensions":{
				"KHR_materials_specular":{
					"specularFactor":0
				},
				"KHR_materials_ior":{
					"ior":1.4500000476837158
				}
			},
			"name":"Material.003",
			"pbrMetallicRoughness":{
				"baseColorFactor":[
					0.3427751660346985,
					0.3427751660346985,
					0.3427751660346985,
					0
				],
				"metallicFactor":0,
				"roughnessFactor":0.690034806728363
			}
		}
	],
	"meshes":[
		{
			"name":"Cube.002",
			"primitives":[
				{
					"attributes":{
						"POSITION":0,
						"NORMAL":1
					},
					"indices":2,
					"material":0
				}
			]
		},
		{
			"name":"Cube.004",
			"primitives":[
				{
					"attributes":{
						"POSITION":3,
						"NORMAL":4
					},
					"indices":5,
					"material":1
				}
			]
		},
		{
			"name":"Cube.001",
			"primitives":[
				{
					"attributes":{
						"POSITION":6,
						"NORMAL":7
					},
					"indices":8,
					"material":1
				},
				{
					"attributes":{
						"POSITION":9,
						"NORMAL":10
					},
					"indices":11,
					"material":2
				}
			]
		}
	],
	"accessors":[
		{
			"bufferView":0,
			"componentType":5126,
			"count":980,
			"max":[
				4.343647480010986,
				6.26356315612793,
				0.13674917817115784
			],
			"min":[
				-4.023673057556152,
				-2.9211463928222656,
				-2.8189990520477295
			],
			"type":"VEC3"
		},
		{
			"bufferView":1,
			"componentType":5126,
			"count":980,
			"type":"VEC3"
		},
		{
			"bufferView":2,
			"componentType":5123,
			"count":1464,
			"type":"SCALAR"
		},
		{
			"bufferView":3,
			"componentType":5126,
			"count":160,
			"max":[
				1.6456949710845947,
				0.05434388667345047,
				1.9969463348388672
			],
			"min":[
				-1.6456949710845947,
				-1.0713160037994385,
				-1.9969463348388672
			],
			"type":"VEC3"
		},
		{
			"bufferView":4,
			"componentType":5126,
			"count":160,
			"type":"VEC3"
		},
		{
			"bufferView":5,
			"componentType":5123,
			"count":240,
			"type":"SCALAR"
		},
		{
			"bufferView":6,
			"componentType":5126,
			"count":428,
			"max":[
				1.445568561553955,
				1.4678263664245605,
				1.4253515005111694
			],
			"min":[
				-1.553808331489563,
				-0.06218478083610535,
				-1.4268947839736938
			],
			"type":"VEC3"
		},
		{
			"bufferView":7,
			"componentType":5126,
			"count":428,
			"type":"VEC3"
		},
		{
			"bufferView":8,
			"componentType":5123,
			"count":744,
			"type":"SCALAR"
		},
		{
			"bufferView":9,
			"componentType":5126,
			"count":280,
			"max":[
				0.2640102505683899,
				1.6581151485443115,
				1.2584760189056396
			],
			"min":[
				-0.24956026673316956,
				1.1696805953979492,
				-1.2584760189056396
			],
			"type":"VEC3"
		},
		{
			"bufferView":10,
			"componentType":5126,
			"count":280,
			"type":"VEC3"
		},
		{
			"bufferView":11,
			"componentType":5123,
			"count":432,
			"type":"SCALAR"
		}
	],
	"bufferViews":[
		{
			"buffer":0,
			"byteLength":11760,
			"byteOffset":0,
			"target":34962
		},
		{
			"buffer":0,
			"byteLength":11760,
			"byteOffset":11760,
			"target":34962
		},
		{
			"buffer":0,
			"byteLength":2928,
			"byteOffset":23520,
			"target":34963
		},
		{
			"buffer":0,
			"byteLength":1920,
			"byteOffset":26448,
			"target":34962
		},
		{
			"buffer":0,
			"byteLength":1920,
			"byteOffset":28368,
			"target":34962
		},
		{
			"buffer":0,
			"byteLength":480,
			"byteOffset":30288,
			"target":34963
		},
		{
			"buffer":0,
			"byteLength":5136,
			"byteOffset":30768,
			"target":34962
		},
		{
			"buffer":0,
			"byteLength":5136,
			"byteOffset":35904,
			"target":34962
		},
		{
			"buffer":0,
			"byteLength":1488,
			"byteOffset":41040,
			"target":34963
		},
		{
			"buffer":0,
			"byteLength":3360,
			"byteOffset":42528,
			"target":34962
		},
		{
			"buffer":0,
			"byteLength":3360,
			"byteOffset":45888,
			"target":34962
		},
		{
			"buffer":0,
			"byteLength":864,
			"byteOffset":49248,
			"target":34963
		}
	],
	"buffers":[
		{
			"byteLength":50112,
			"uri":"catapult.bin"
		}
	]
}
