{
	"asset":{
		"generator":"Khronos glTF Blender I/O v4.0.44",
		"version":"2.0"
	},
	"scene":0,
	"scenes":[
		{
			"name":"Scene",
			"nodes":[
				0,
				1,
				2,
				3,
				4,
				5,
				6
			]
		}
	],
	"nodes":[
		{
			"mesh":0,
			"name":"Circle",
			"rotation":[
				0.49718108773231506,
				-0.5027837753295898,
				0.49579307436943054,
				0.5041911005973816
			],
			"scale":[
				0.32975202798843384,
				0.9998544454574585,
				0.2734450697898865
			],
			"translation":[
				-4.767445087432861,
				2.5143933296203613,
				1.6440832614898682
			]
		},
		{
			"mesh":1,
			"name":"Plane.002",
			"rotation":[
				-0.03381020575761795,
				-0.6966954469680786,
				-0.7163337469100952,
				0.01839533820748329
			],
			"scale":[
				-0.9964142441749573,
				-0.31276172399520874,
				-0.946567714214325
			],
			"translation":[
				-0.49379363656044006,
				0.44452664256095886,
				1.7735490798950195
			]
		},
		{
			"mesh":2,
			"name":"Plane.001",
			"rotation":[
				-0.40990886092185974,
				-0.5717798471450806,
				0.578643798828125,
				0.41256991028785706
			],
			"scale":[
				1.0057209730148315,
				0.7389222979545593,
				1.0479254722595215
			],
			"translation":[
				3.075828790664673,
				-1.3150793313980103,
				1.641190528869629
			]
		},
		{
			"mesh":3,
			"name":"Plane",
			"rotation":[
				0.70710688829422,
				0,
				0,
				0.7071066498756409
			],
			"scale":[
				1,
				6.745285511016846,
				1
			],
			"translation":[
				2.9267783164978027,
				1.6622308492660522,
				1.6753144264221191
			]
		},
		{
			"mesh":4,
			"name":"Circle.001",
			"rotation":[
				0.49718108773231506,
				-0.5027837753295898,
				0.49579307436943054,
				0.5041911005973816
			],
			"scale":[
				0.44626593589782715,
				0.9652085900306702,
				0.3781830370426178
			],
			"translation":[
				-4.614473342895508,
				1.8855249881744385,
				1.7408370971679688
			]
		},
		{
			"mesh":5,
			"name":"Plane.003",
			"rotation":[
				0.70710688829422,
				0,
				0,
				0.7071066498756409
			],
			"scale":[
				4.249040603637695,
				1.1241798400878906,
				0.5508440136909485
			],
			"translation":[
				-0.10006991028785706,
				2.3313708305358887,
				1.6850563287734985
			]
		},
		{
			"mesh":6,
			"name":"Plane.005",
			"rotation":[
				0.70710688829422,
				0,
				0,
				0.7071066498756409
			],
			"scale":[
				4.249040603637695,
				1.1241798400878906,
				0.5508440136909485
			],
			"translation":[
				-0.07005700469017029,
				2.3313708305358887,
				1.6850563287734985
			]
		}
	],
	"materials":[
		{
			"doubleSided":true,
			"name":"Material.002",
			"pbrMetallicRoughness":{
				"baseColorFactor":[
					0.07522047311067581,
					0.07522047311067581,
					0.07522047311067581,
					1
				],
				"metallicFactor":0,
				"roughnessFactor":0.6808510422706604
			}
		},
		{
			"doubleSided":true,
			"name":"Material.001",
			"pbrMetallicRoughness":{
				"baseColorFactor":[
					0.06693127751350403,
					0.06693127751350403,
					0.06693127751350403,
					1
				],
				"metallicFactor":0,
				"roughnessFactor":0.6489361524581909
			}
		},
		{
			"doubleSided":true,
			"name":"Material",
			"pbrMetallicRoughness":{
				"baseColorFactor":[
					0.09030738472938538,
					0.09030738472938538,
					0.09030738472938538,
					1
				],
				"metallicFactor":0,
				"roughnessFactor":0.7446808815002441
			}
		},
		{
			"doubleSided":true,
			"name":"Material.003",
			"pbrMetallicRoughness":{
				"baseColorFactor":[
					0.1413801908493042,
					0.1413801908493042,
					0.1413801908493042,
					1
				],
				"metallicFactor":0,
				"roughnessFactor":0.8936170339584351
			}
		}
	],
	"meshes":[
		{
			"name":"Circle",
			"primitives":[
				{
					"attributes":{
						"POSITION":0,
						"NORMAL":1
					},
					"indices":2
				}
			]
		},
		{
			"name":"Plane.003",
			"primitives":[
				{
					"attributes":{
						"POSITION":3,
						"NORMAL":4
					},
					"indices":5,
					"material":0
				}
			]
		},
		{
			"name":"Plane.002",
			"primitives":[
				{
					"attributes":{
						"POSITION":6,
						"NORMAL":7
					},
					"indices":8,
					"material":1
				}
			]
		},
		{
			"name":"Plane.001",
			"primitives":[
				{
					"attributes":{
						"POSITION":9,
						"NORMAL":10
					},
					"indices":11,
					"material":2
				}
			]
		},
		{
			"name":"Circle.001",
			"primitives":[
				{
					"attributes":{
						"POSITION":12,
						"NORMAL":13
					},
					"indices":14
				}
			]
		},
		{
			"name":"Plane.007",
			"primitives":[
				{
					"attributes":{
						"POSITION":15,
						"NORMAL":16
					},
					"indices":17,
					"material":3
				}
			]
		},
		{
			"name":"Plane.008",
			"primitives":[
				{
					"attributes":{
						"POSITION":18,
						"NORMAL":19
					},
					"indices":20
				}
			]
		}
	],
	"accessors":[
		{
			"bufferView":0,
			"componentType":5126,
			"count":72,
			"max":[
				1.0695065259933472,
				2.0646692688863766e-10,
				1.0695065259933472
			],
			"min":[
				-1.0695066452026367,
				-8.661126136779785,
				-1.0695065259933472
			],
			"type":"VEC3"
		},
		{
			"bufferView":1,
			"componentType":5126,
			"count":72,
			"type":"VEC3"
		},
		{
			"bufferView":2,
			"componentType":5123,
			"count":420,
			"type":"SCALAR"
		},
		{
			"bufferView":3,
			"componentType":5126,
			"count":168,
			"max":[
				1.2721654176712036,
				0.3512454330921173,
				0.2696649730205536
			],
			"min":[
				0.2182803452014923,
				-0.3512454330921173,
				-0.8534468412399292
			],
			"type":"VEC3"
		},
		{
			"bufferView":4,
			"componentType":5126,
			"count":168,
			"type":"VEC3"
		},
		{
			"bufferView":5,
			"componentType":5123,
			"count":1188,
			"type":"SCALAR"
		},
		{
			"bufferView":6,
			"componentType":5126,
			"count":102,
			"max":[
				3.5598983764648438,
				0.3091883361339569,
				1.0949459075927734
			],
			"min":[
				-2.390012502670288,
				-0.3091883361339569,
				-0.51106858253479
			],
			"type":"VEC3"
		},
		{
			"bufferView":7,
			"componentType":5126,
			"count":102,
			"type":"VEC3"
		},
		{
			"bufferView":8,
			"componentType":5123,
			"count":648,
			"type":"SCALAR"
		},
		{
			"bufferView":9,
			"componentType":5126,
			"count":624,
			"max":[
				2.0304312705993652,
				0.07674412429332733,
				4.896113872528076
			],
			"min":[
				-7.623218059539795,
				-0.0767441913485527,
				-0.27201294898986816
			],
			"type":"VEC3"
		},
		{
			"bufferView":10,
			"componentType":5126,
			"count":624,
			"type":"VEC3"
		},
		{
			"bufferView":11,
			"componentType":5123,
			"count":4092,
			"type":"SCALAR"
		},
		{
			"bufferView":12,
			"componentType":5126,
			"count":96,
			"max":[
				0.5320865511894226,
				0.16963469982147217,
				0.7280102372169495
			],
			"min":[
				-0.8966966867446899,
				-8.694002151489258,
				-0.7421821355819702
			],
			"type":"VEC3"
		},
		{
			"bufferView":13,
			"componentType":5126,
			"count":96,
			"type":"VEC3"
		},
		{
			"bufferView":14,
			"componentType":5123,
			"count":564,
			"type":"SCALAR"
		},
		{
			"bufferView":15,
			"componentType":5126,
			"count":996,
			"max":[
				1.0392616987228394,
				0.4249989986419678,
				1.018770456314087
			],
			"min":[
				-1.0871988534927368,
				-0.43740546703338623,
				-1.5338902473449707
			],
			"type":"VEC3"
		},
		{
			"bufferView":16,
			"componentType":5126,
			"count":996,
			"type":"VEC3"
		},
		{
			"bufferView":17,
			"componentType":5123,
			"count":6234,
			"type":"SCALAR"
		},
		{
			"bufferView":18,
			"componentType":5126,
			"count":468,
			"max":[
				1.0264703035354614,
				0.41499900817871094,
				0.9298223257064819
			],
			"min":[
				-1.077199101448059,
				-0.41499900817871094,
				-1.525462031364441
			],
			"type":"VEC3"
		},
		{
			"bufferView":19,
			"componentType":5126,
			"count":468,
			"type":"VEC3"
		},
		{
			"bufferView":20,
			"componentType":5123,
			"count":2940,
			"type":"SCALAR"
		}
	],
	"bufferViews":[
		{
			"buffer":0,
			"byteLength":864,
			"byteOffset":0,
			"target":34962
		},
		{
			"buffer":0,
			"byteLength":864,
			"byteOffset":864,
			"target":34962
		},
		{
			"buffer":0,
			"byteLength":840,
			"byteOffset":1728,
			"target":34963
		},
		{
			"buffer":0,
			"byteLength":2016,
			"byteOffset":2568,
			"target":34962
		},
		{
			"buffer":0,
			"byteLength":2016,
			"byteOffset":4584,
			"target":34962
		},
		{
			"buffer":0,
			"byteLength":2376,
			"byteOffset":6600,
			"target":34963
		},
		{
			"buffer":0,
			"byteLength":1224,
			"byteOffset":8976,
			"target":34962
		},
		{
			"buffer":0,
			"byteLength":1224,
			"byteOffset":10200,
			"target":34962
		},
		{
			"buffer":0,
			"byteLength":1296,
			"byteOffset":11424,
			"target":34963
		},
		{
			"buffer":0,
			"byteLength":7488,
			"byteOffset":12720,
			"target":34962
		},
		{
			"buffer":0,
			"byteLength":7488,
			"byteOffset":20208,
			"target":34962
		},
		{
			"buffer":0,
			"byteLength":8184,
			"byteOffset":27696,
			"target":34963
		},
		{
			"buffer":0,
			"byteLength":1152,
			"byteOffset":35880,
			"target":34962
		},
		{
			"buffer":0,
			"byteLength":1152,
			"byteOffset":37032,
			"target":34962
		},
		{
			"buffer":0,
			"byteLength":1128,
			"byteOffset":38184,
			"target":34963
		},
		{
			"buffer":0,
			"byteLength":11952,
			"byteOffset":39312,
			"target":34962
		},
		{
			"buffer":0,
			"byteLength":11952,
			"byteOffset":51264,
			"target":34962
		},
		{
			"buffer":0,
			"byteLength":12468,
			"byteOffset":63216,
			"target":34963
		},
		{
			"buffer":0,
			"byteLength":5616,
			"byteOffset":75684,
			"target":34962
		},
		{
			"buffer":0,
			"byteLength":5616,
			"byteOffset":81300,
			"target":34962
		},
		{
			"buffer":0,
			"byteLength":5880,
			"byteOffset":86916,
			"target":34963
		}
	],
	"buffers":[
		{
			"byteLength":92796,
			"uri":"glock.bin"
		}
	]
}
