{
	"asset":{
		"generator":"Khronos glTF Blender I/O v4.0.44",
		"version":"2.0"
	},
	"scene":0,
	"scenes":[
		{
			"name":"Scene",
			"nodes":[
				0
			]
		}
	],
	"nodes":[
		{
			"mesh":0,
			"name":"Cube"
		}
	],
	"materials":[
		{
			"doubleSided":true,
			"name":"Material.001",
			"pbrMetallicRoughness":{
				"baseColorTexture":{
					"index":0
				},
				"metallicFactor":0
			}
		}
	],
	"meshes":[
		{
			"name":"Cube.001",
			"primitives":[
				{
					"attributes":{
						"POSITION":0,
						"NORMAL":1,
						"TEXCOORD_0":2
					},
					"indices":3,
					"material":0
				}
			]
		}
	],
	"textures":[
		{
			"sampler":0,
			"source":0
		}
	],
	"images":[
		{
			"mimeType":"image/png",
			"name":"monster_Material_BaseColor",
			"uri":"monster_Material_BaseColor.png"
		}
	],
	"accessors":[
		{
			"bufferView":0,
			"componentType":5126,
			"count":445689,
			"max":[
				2.6867799758911133,
				7.7800374031066895,
				1.613369345664978
			],
			"min":[
				-2.6867799758911133,
				-4.618017673492432,
				-0.8355259895324707
			],
			"type":"VEC3"
		},
		{
			"bufferView":1,
			"componentType":5126,
			"count":445689,
			"type":"VEC3"
		},
		{
			"bufferView":2,
			"componentType":5126,
			"count":445689,
			"type":"VEC2"
		},
		{
			"bufferView":3,
			"componentType":5125,
			"count":831552,
			"type":"SCALAR"
		}
	],
	"bufferViews":[
		{
			"buffer":0,
			"byteLength":5348268,
			"byteOffset":0,
			"target":34962
		},
		{
			"buffer":0,
			"byteLength":5348268,
			"byteOffset":5348268,
			"target":34962
		},
		{
			"buffer":0,
			"byteLength":3565512,
			"byteOffset":10696536,
			"target":34962
		},
		{
			"buffer":0,
			"byteLength":3326208,
			"byteOffset":14262048,
			"target":34963
		}
	],
	"samplers":[
		{
			"magFilter":9729,
			"minFilter":9987
		}
	],
	"buffers":[
		{
			"byteLength":17588256,
			"uri":"monster.bin"
		}
	]
}
