{
	"asset":{
		"generator":"Khronos glTF Blender I/O v4.0.44",
		"version":"2.0"
	},
	"extensionsUsed":[
		"KHR_materials_specular",
		"KHR_materials_ior"
	],
	"scene":0,
	"scenes":[
		{
			"name":"Scene",
			"nodes":[
				0,
				1
			]
		}
	],
	"nodes":[
		{
			"mesh":0,
			"name":"Cube.002",
			"rotation":[
				-0.09911331534385681,
				-0.7286840081214905,
				0.09132963418960571,
				0.6714574098587036
			],
			"scale":[
				0.11761918663978577,
				1.8265517950057983,
				1.8265517950057983
			],
			"translation":[
				1.3475205898284912,
				2.7835421562194824,
				0.5543036460876465
			]
		},
		{
			"mesh":1,
			"name":"Cylinder.001",
			"rotation":[
				0,
				-0.7353936433792114,
				0,
				0.6776401996612549
			],
			"scale":[
				1.4572389125823975,
				1.457239031791687,
				1.4572389125823975
			],
			"translation":[
				1.3351142406463623,
				0,
				0.3051595687866211
			]
		}
	],
	"materials":[
		{
			"doubleSided":true,
			"extensions":{
				"KHR_materials_specular":{
					"specularFactor":0
				},
				"KHR_materials_ior":{
					"ior":1.4500000476837158
				}
			},
			"name":"Material.001",
			"pbrMetallicRoughness":{
				"baseColorFactor":[
					0.14125889539718628,
					0.14125889539718628,
					0.14125889539718628,
					0
				],
				"metallicFactor":0,
				"roughnessFactor":0.690034806728363
			}
		},
		{
			"doubleSided":true,
			"extensions":{
				"KHR_materials_specular":{
					"specularFactor":0.8745519518852234
				},
				"KHR_materials_ior":{
					"ior":1.4500000476837158
				}
			},
			"name":"Material.005",
			"pbrMetallicRoughness":{
				"baseColorFactor":[
					0.08752060681581497,
					0.05918093025684357,
					0.5372094511985779,
					0
				],
				"metallicFactor":0,
				"roughnessFactor":0.690034806728363
			}
		},
		{
			"doubleSided":true,
			"extensions":{
				"KHR_materials_specular":{
					"specularFactor":0
				},
				"KHR_materials_ior":{
					"ior":1.4500000476837158
				}
			},
			"name":"Material.006",
			"pbrMetallicRoughness":{
				"baseColorFactor":[
					0,
					0,
					0,
					0
				],
				"metallicFactor":0,
				"roughnessFactor":0.690034806728363
			}
		},
		{
			"doubleSided":true,
			"extensions":{
				"KHR_materials_specular":{
					"specularFactor":0
				},
				"KHR_materials_ior":{
					"ior":1.4500000476837158
				}
			},
			"name":"Material.007",
			"pbrMetallicRoughness":{
				"baseColorFactor":[
					0.14100000262260437,
					0.14100000262260437,
					0.14100000262260437,
					0
				],
				"metallicFactor":0,
				"roughnessFactor":0.690034806728363
			}
		}
	],
	"meshes":[
		{
			"name":"Cube.002",
			"primitives":[
				{
					"attributes":{
						"POSITION":0,
						"NORMAL":1
					},
					"indices":2,
					"material":0
				},
				{
					"attributes":{
						"POSITION":3,
						"NORMAL":4
					},
					"indices":5,
					"material":1
				},
				{
					"attributes":{
						"POSITION":6,
						"NORMAL":7
					},
					"indices":8,
					"material":2
				}
			]
		},
		{
			"name":"Cylinder",
			"primitives":[
				{
					"attributes":{
						"POSITION":9,
						"NORMAL":10
					},
					"indices":11,
					"material":3
				}
			]
		}
	],
	"accessors":[
		{
			"bufferView":0,
			"componentType":5126,
			"count":210,
			"max":[
				2.6713528633117676,
				1,
				1
			],
			"min":[
				-1,
				-1,
				-1
			],
			"type":"VEC3"
		},
		{
			"bufferView":1,
			"componentType":5126,
			"count":210,
			"type":"VEC3"
		},
		{
			"bufferView":2,
			"componentType":5123,
			"count":576,
			"type":"SCALAR"
		},
		{
			"bufferView":3,
			"componentType":5126,
			"count":89,
			"max":[
				2.6713528633117676,
				0.9275357723236084,
				0.927535891532898
			],
			"min":[
				2.66233491897583,
				-0.9275357723236084,
				-0.927535891532898
			],
			"type":"VEC3"
		},
		{
			"bufferView":4,
			"componentType":5126,
			"count":89,
			"type":"VEC3"
		},
		{
			"bufferView":5,
			"componentType":5123,
			"count":192,
			"type":"SCALAR"
		},
		{
			"bufferView":6,
			"componentType":5126,
			"count":252,
			"max":[
				3.1063525676727295,
				0.9275357723236084,
				0.927535891532898
			],
			"min":[
				2.66233491897583,
				-0.9978370666503906,
				-0.9634683132171631
			],
			"type":"VEC3"
		},
		{
			"bufferView":7,
			"componentType":5126,
			"count":252,
			"type":"VEC3"
		},
		{
			"bufferView":8,
			"componentType":5123,
			"count":504,
			"type":"SCALAR"
		},
		{
			"bufferView":9,
			"componentType":5126,
			"count":264,
			"max":[
				1,
				1.4430272579193115,
				1
			],
			"min":[
				-1,
				-1,
				-1
			],
			"type":"VEC3"
		},
		{
			"bufferView":10,
			"componentType":5126,
			"count":264,
			"type":"VEC3"
		},
		{
			"bufferView":11,
			"componentType":5123,
			"count":432,
			"type":"SCALAR"
		}
	],
	"bufferViews":[
		{
			"buffer":0,
			"byteLength":2520,
			"byteOffset":0,
			"target":34962
		},
		{
			"buffer":0,
			"byteLength":2520,
			"byteOffset":2520,
			"target":34962
		},
		{
			"buffer":0,
			"byteLength":1152,
			"byteOffset":5040,
			"target":34963
		},
		{
			"buffer":0,
			"byteLength":1068,
			"byteOffset":6192,
			"target":34962
		},
		{
			"buffer":0,
			"byteLength":1068,
			"byteOffset":7260,
			"target":34962
		},
		{
			"buffer":0,
			"byteLength":384,
			"byteOffset":8328,
			"target":34963
		},
		{
			"buffer":0,
			"byteLength":3024,
			"byteOffset":8712,
			"target":34962
		},
		{
			"buffer":0,
			"byteLength":3024,
			"byteOffset":11736,
			"target":34962
		},
		{
			"buffer":0,
			"byteLength":1008,
			"byteOffset":14760,
			"target":34963
		},
		{
			"buffer":0,
			"byteLength":3168,
			"byteOffset":15768,
			"target":34962
		},
		{
			"buffer":0,
			"byteLength":3168,
			"byteOffset":18936,
			"target":34962
		},
		{
			"buffer":0,
			"byteLength":864,
			"byteOffset":22104,
			"target":34963
		}
	],
	"buffers":[
		{
			"byteLength":22968,
			"uri":"panel.bin"
		}
	]
}
