{
	"asset":{
		"generator":"Khronos glTF Blender I/O v4.0.44",
		"version":"2.0"
	},
	"extensionsUsed":[
		"KHR_materials_specular",
		"KHR_materials_ior"
	],
	"scene":0,
	"scenes":[
		{
			"name":"Scene",
			"nodes":[
				0,
				1,
				2,
				3
			]
		}
	],
	"nodes":[
		{
			"mesh":0,
			"name":"Cube.002",
			"scale":[
				0.6907371878623962,
				0.4888865649700165,
				0.6907371878623962
			],
			"translation":[
				-0.14369678497314453,
				1.8908873796463013,
				-0.11443633586168289
			]
		},
		{
			"mesh":1,
			"name":"Cube.001",
			"rotation":[
				0,
				0.7071066498756409,
				0,
				0.70710688829422
			],
			"scale":[
				1.0648645162582397,
				0.9849909543991089,
				1.191344976425171
			],
			"translation":[
				-0.13794389367103577,
				0,
				-0.1390063464641571
			]
		},
		{
			"mesh":2,
			"name":"Cube",
			"rotation":[
				0,
				0.7071066498756409,
				0,
				0.70710688829422
			],
			"scale":[
				1.0608612298965454,
				0.9812878966331482,
				1.1155850887298584
			],
			"translation":[
				-0.13794389367103577,
				0,
				-0.1390063464641571
			]
		},
		{
			"mesh":3,
			"name":"Cylinder.001",
			"rotation":[
				0.70710688829422,
				0,
				0,
				0.7071066498756409
			],
			"scale":[
				0.2333141267299652,
				0.2333141267299652,
				0.2333141267299652
			],
			"translation":[
				-0.13718806207180023,
				1.8517714738845825,
				0.7044150233268738
			]
		}
	],
	"materials":[
		{
			"doubleSided":true,
			"extensions":{
				"KHR_materials_specular":{
					"specularColorFactor":[
						2.0,
						2.0,
						2.0
					]
				},
				"KHR_materials_ior":{
					"ior":1.4500000476837158
				}
			},
			"name":"Material.005",
			"pbrMetallicRoughness":{
				"baseColorFactor":[
					0.08115050941705704,
					0.08115050941705704,
					0.08115050941705704,
					1
				],
				"metallicFactor":0,
				"roughnessFactor":0.5
			}
		},
		{
			"doubleSided":true,
			"name":"Material.006",
			"pbrMetallicRoughness":{
				"baseColorFactor":[
					0.275434672832489,
					0.275434672832489,
					0.275434672832489,
					1
				],
				"metallicFactor":0,
				"roughnessFactor":0.5
			}
		},
		{
			"doubleSided":true,
			"extensions":{
				"KHR_materials_specular":{
					"specularColorFactor":[
						2.0,
						2.0,
						2.0
					]
				},
				"KHR_materials_ior":{
					"ior":1.4500000476837158
				}
			},
			"name":"Material.002",
			"pbrMetallicRoughness":{
				"baseColorFactor":[
					0.08115100115537643,
					0.08115100115537643,
					0.08115100115537643,
					1
				],
				"metallicFactor":0,
				"roughnessFactor":0
			}
		},
		{
			"doubleSided":true,
			"extensions":{
				"KHR_materials_specular":{
					"specularColorFactor":[
						2.0,
						2.0,
						2.0
					]
				},
				"KHR_materials_ior":{
					"ior":1.4500000476837158
				}
			},
			"name":"Material.004",
			"pbrMetallicRoughness":{
				"baseColorFactor":[
					0.08115100115537643,
					0.08115100115537643,
					0.08115100115537643,
					1
				],
				"metallicFactor":0,
				"roughnessFactor":0.5
			}
		},
		{
			"doubleSided":true,
			"extensions":{
				"KHR_materials_specular":{
					"specularFactor":0
				},
				"KHR_materials_ior":{
					"ior":1.4500000476837158
				}
			},
			"name":"Material.008",
			"pbrMetallicRoughness":{
				"baseColorFactor":[
					0.37625426054000854,
					0.37625426054000854,
					0.37625426054000854,
					1
				],
				"metallicFactor":0,
				"roughnessFactor":0.5
			}
		}
	],
	"meshes":[
		{
			"name":"Cube.001",
			"primitives":[
				{
					"attributes":{
						"POSITION":0,
						"NORMAL":1
					},
					"indices":2,
					"material":0
				},
				{
					"attributes":{
						"POSITION":3,
						"NORMAL":4
					},
					"indices":5,
					"material":1
				}
			]
		},
		{
			"name":"Cube.002",
			"primitives":[
				{
					"attributes":{
						"POSITION":6,
						"NORMAL":7
					},
					"indices":8,
					"material":2
				}
			]
		},
		{
			"name":"Cube.003",
			"primitives":[
				{
					"attributes":{
						"POSITION":9,
						"NORMAL":10
					},
					"indices":11,
					"material":2
				}
			]
		},
		{
			"extras":{
				"targetNames":[
					"Key 1"
				]
			},
			"name":"Cylinder.001",
			"primitives":[
				{
					"attributes":{
						"POSITION":12,
						"NORMAL":13
					},
					"indices":14,
					"material":3,
					"targets":[
						{
							"POSITION":15,
							"NORMAL":16
						}
					]
				},
				{
					"attributes":{
						"POSITION":17,
						"NORMAL":18
					},
					"indices":19,
					"material":4,
					"targets":[
						{
							"POSITION":20,
							"NORMAL":21
						}
					]
				}
			],
			"weights":[
				0.3333333134651184
			]
		}
	],
	"accessors":[
		{
			"bufferView":0,
			"componentType":5126,
			"count":909,
			"max":[
				1,
				1.634170413017273,
				1
			],
			"min":[
				-1,
				-1.9988261461257935,
				-1.377264380455017
			],
			"type":"VEC3"
		},
		{
			"bufferView":1,
			"componentType":5126,
			"count":909,
			"type":"VEC3"
		},
		{
			"bufferView":2,
			"componentType":5123,
			"count":1989,
			"type":"SCALAR"
		},
		{
			"bufferView":3,
			"componentType":5126,
			"count":131,
			"max":[
				1,
				1,
				1
			],
			"min":[
				-1,
				-1,
				1
			],
			"type":"VEC3"
		},
		{
			"bufferView":4,
			"componentType":5126,
			"count":131,
			"type":"VEC3"
		},
		{
			"bufferView":5,
			"componentType":5123,
			"count":387,
			"type":"SCALAR"
		},
		{
			"bufferView":6,
			"componentType":5126,
			"count":160,
			"max":[
				1.4375333786010742,
				0.05434387922286987,
				1.521968126296997
			],
			"min":[
				-1.4375333786010742,
				-1.0713160037994385,
				-1.521968126296997
			],
			"type":"VEC3"
		},
		{
			"bufferView":7,
			"componentType":5126,
			"count":160,
			"type":"VEC3"
		},
		{
			"bufferView":8,
			"componentType":5123,
			"count":240,
			"type":"SCALAR"
		},
		{
			"bufferView":9,
			"componentType":5126,
			"count":224,
			"max":[
				1.445568561553955,
				1.0623624324798584,
				1.4253515005111694
			],
			"min":[
				-1.553808331489563,
				-0.06218478083610535,
				-1.4268947839736938
			],
			"type":"VEC3"
		},
		{
			"bufferView":10,
			"componentType":5126,
			"count":224,
			"type":"VEC3"
		},
		{
			"bufferView":11,
			"componentType":5123,
			"count":372,
			"type":"SCALAR"
		},
		{
			"bufferView":12,
			"componentType":5126,
			"count":1920,
			"max":[
				1.2347240447998047,
				11.459383964538574,
				1.239797592163086
			],
			"min":[
				-1.2347240447998047,
				-1.208237648010254,
				-1.2397980690002441
			],
			"type":"VEC3"
		},
		{
			"bufferView":13,
			"componentType":5126,
			"count":1920,
			"type":"VEC3"
		},
		{
			"bufferView":14,
			"componentType":5123,
			"count":3828,
			"type":"SCALAR"
		},
		{
			"bufferView":15,
			"componentType":5126,
			"count":1920,
			"max":[
				0.6468291282653809,
				5.144583702087402,
				0.6494852304458618
			],
			"min":[
				-0.6468286514282227,
				0.45154666900634766,
				-0.6494883298873901
			],
			"type":"VEC3"
		},
		{
			"bufferView":16,
			"componentType":5126,
			"count":1920,
			"type":"VEC3"
		},
		{
			"bufferView":17,
			"componentType":5126,
			"count":512,
			"max":[
				1.2347240447998047,
				8.499738693237305,
				1.239797592163086
			],
			"min":[
				-1.2347240447998047,
				6.762700080871582,
				-1.2397980690002441
			],
			"type":"VEC3"
		},
		{
			"bufferView":18,
			"componentType":5126,
			"count":512,
			"type":"VEC3"
		},
		{
			"bufferView":19,
			"componentType":5123,
			"count":768,
			"type":"SCALAR"
		},
		{
			"bufferView":20,
			"componentType":5126,
			"count":512,
			"max":[
				0.6468291282653809,
				3.4107303619384766,
				0.6494852304458618
			],
			"min":[
				-0.6468286514282227,
				2.5743579864501953,
				-0.6494883298873901
			],
			"type":"VEC3"
		},
		{
			"bufferView":21,
			"componentType":5126,
			"count":512,
			"type":"VEC3"
		}
	],
	"bufferViews":[
		{
			"buffer":0,
			"byteLength":10908,
			"byteOffset":0,
			"target":34962
		},
		{
			"buffer":0,
			"byteLength":10908,
			"byteOffset":10908,
			"target":34962
		},
		{
			"buffer":0,
			"byteLength":3978,
			"byteOffset":21816,
			"target":34963
		},
		{
			"buffer":0,
			"byteLength":1572,
			"byteOffset":25796,
			"target":34962
		},
		{
			"buffer":0,
			"byteLength":1572,
			"byteOffset":27368,
			"target":34962
		},
		{
			"buffer":0,
			"byteLength":774,
			"byteOffset":28940,
			"target":34963
		},
		{
			"buffer":0,
			"byteLength":1920,
			"byteOffset":29716,
			"target":34962
		},
		{
			"buffer":0,
			"byteLength":1920,
			"byteOffset":31636,
			"target":34962
		},
		{
			"buffer":0,
			"byteLength":480,
			"byteOffset":33556,
			"target":34963
		},
		{
			"buffer":0,
			"byteLength":2688,
			"byteOffset":34036,
			"target":34962
		},
		{
			"buffer":0,
			"byteLength":2688,
			"byteOffset":36724,
			"target":34962
		},
		{
			"buffer":0,
			"byteLength":744,
			"byteOffset":39412,
			"target":34963
		},
		{
			"buffer":0,
			"byteLength":23040,
			"byteOffset":40156,
			"target":34962
		},
		{
			"buffer":0,
			"byteLength":23040,
			"byteOffset":63196,
			"target":34962
		},
		{
			"buffer":0,
			"byteLength":7656,
			"byteOffset":86236,
			"target":34963
		},
		{
			"buffer":0,
			"byteLength":23040,
			"byteOffset":93892,
			"target":34962
		},
		{
			"buffer":0,
			"byteLength":23040,
			"byteOffset":116932,
			"target":34962
		},
		{
			"buffer":0,
			"byteLength":6144,
			"byteOffset":139972,
			"target":34962
		},
		{
			"buffer":0,
			"byteLength":6144,
			"byteOffset":146116,
			"target":34962
		},
		{
			"buffer":0,
			"byteLength":1536,
			"byteOffset":152260,
			"target":34963
		},
		{
			"buffer":0,
			"byteLength":6144,
			"byteOffset":153796,
			"target":34962
		},
		{
			"buffer":0,
			"byteLength":6144,
			"byteOffset":159940,
			"target":34962
		}
	],
	"buffers":[
		{
			"byteLength":166084,
			"uri":"turret.bin"
		}
	]
}
